<svg xmlns="http://www.w3.org/2000/svg" viewBox="0 0 512 512" role="img" aria-label="Seedance Storyboard Generator">
  <defs>
    <linearGradient id="bg" x1="0" x2="1" y1="0" y2="1">
      <stop offset="0%" stop-color="#EA580C"/>
      <stop offset="100%" stop-color="#9A3412"/>
    </linearGradient>
  </defs>
  <rect width="512" height="512" rx="96" fill="url(#bg)"/>
  <rect x="88" y="108" width="336" height="224" rx="28" fill="#FFF4E6"/>
  <rect x="124" y="150" width="156" height="28" rx="8" fill="#D9480F"/>
  <rect x="124" y="202" width="244" height="28" rx="8" fill="#D9480F"/>
  <rect x="124" y="254" width="176" height="28" rx="8" fill="#D9480F"/>
  <path d="m324 136 72 42-72 42z" fill="#7C2D12"/>
  <path d="M116 382c48-30 92-45 132-45 62 0 96 44 148 44 14 0 29-3 44-9-17 25-45 49-78 66-35 18-74 28-112 28-57 0-102-20-134-59Z" fill="#FED7AA"/>
</svg>
